# xmcd
#
# Track frame offsets: 
#        150
#        16852
#        37030
#        59291
#        86490
#        100189
#        117016
#        135842
#        150774
#        172547
#        199698
#        219005
#        234557
#        249141
#        266017
#
# Disc length: 3746 seconds
#
# Revision: 0
# Processed by: cddbd v1.5.2PL0 Copyright (c) Steve Scherf et al.
# Submitted via: ExactAudioCopy v1.3
#
DISCID=a40ea00f
DTITLE=Lefty Dizz and Carlos Johnson - The Healer
DYEAR=2000
DGENRE=Chicago Blues
TTITLE0=Call Me Carlos Johnson
TTITLE1=The Healer
TTITLE2=Jimmy Reed Medley
TTITLE3=I Got To Love Somebody`s Baby
TTITLE4=Crack Head Woman
TTITLE5=Caldonia
TTITLE6=Woke Up This Morning (Dreamin`Blues)
TTITLE7=You Can`t Make Love Alone
TTITLE8=Chips Flying Everywhere
TTITLE9=Hoodoo Man Blues
TTITLE10=Caldonia
TTITLE11=The Dozens (I`m Moving In On You) 
TTITLE12=Sure Had A Wonderful Time
TTITLE13=Cloudy Weather
TTITLE14=I Found Out
EXTD=
EXTT0=
EXTT1=
EXTT2=
EXTT3=
EXTT4=
EXTT5=
EXTT6=
EXTT7=
EXTT8=
EXTT9=
EXTT10=
EXTT11=
EXTT12=
EXTT13=
EXTT14=
PLAYORDER=
